# xmcd
#
# Track frame offsets: 
#        150
#        18750
#        38530
#        55615
#        84937
#        106400
#        139097
#        168465
#        181155
#        196795
#        217770
#        246735
#        271365
#
# Disc length: 3832 seconds
#
# Revision: 5
# Processed by: cddbd v1.5PL3 Copyright (c) Steve Scherf et al.
# Submitted via: ExactAudioCopy v0.95a4
#
DISCID=a20ef60d
DTITLE=Jim White - No Such Place
DYEAR=2001
DGENRE=country
TTITLE0=Handcuffed to a Fence in Mississippi
TTITLE1=The Wound That Never Heals
TTITLE2=Corvair
TTITLE3=The Wrong Kind of Love
TTITLE4=10 Miles to Go on a 9 Mile Road
TTITLE5=Christmas Day
TTITLE6=Bound to Forget
TTITLE7=God Was Drunk When He Made Me
TTITLE8=King of the Road
TTITLE9=Ghost-town of My Brain
TTITLE10=Hey! You Going My Way???
TTITLE11=The Love That Never Fails
TTITLE12=Corvair Reprise
EXTD=
EXTT0=
EXTT1=
EXTT2=
EXTT3=
EXTT4=
EXTT5=
EXTT6=
EXTT7=
EXTT8=
EXTT9=
EXTT10=
EXTT11=
EXTT12=
PLAYORDER=
